<svg xmlns="http://www.w3.org/2000/svg" viewBox="0 0 420 420"><defs><filter id="s"><feDropShadow dx="0" dy="12" stdDeviation="12" flood-color="#50110f" flood-opacity=".28"/></filter><pattern id="p" width="24" height="24" patternUnits="userSpaceOnUse"><path d="M3 3c8 4 10 14 2 18M15 2c6 7 5 14-2 20" stroke="#fff" stroke-width="4" fill="none" stroke-linecap="round" opacity=".86"/></pattern></defs><circle cx="210" cy="210" r="198" fill="#fff"/><circle cx="210" cy="210" r="188" fill="#ed1f24" filter="url(#s)"/><rect x="42" y="42" width="336" height="336" rx="36" fill="url(#p)" opacity=".75"/><rect x="82" y="80" width="256" height="260" rx="22" fill="#ed1f24"/><text x="210" y="126" text-anchor="middle" font-family="Arial, sans-serif" font-size="26" font-weight="700" fill="#fff">RAMBAK</text><text x="210" y="174" text-anchor="middle" font-family="Arial, sans-serif" font-size="29" font-weight="700" fill="#fff">KULIT  ASLI</text><text x="210" y="248" text-anchor="middle" font-family="Arial Black,Arial,sans-serif" font-size="66" font-weight="900" fill="#fff" letter-spacing="1">SISWANTO</text><path d="M135 296c25-30 54 31 89-9 13-15 35-22 61 8" stroke="#fff" stroke-width="12" fill="none" stroke-linecap="round"/><path d="M171 293c13 30 48 33 86 7" stroke="#fff" stroke-width="8" fill="none" stroke-linecap="round"/></svg>
