<svg xmlns="http://www.w3.org/2000/svg" viewBox="0 0 900 650"><rect width="900" height="650" fill="#fff3dc"/><rect x="160" y="105" width="240" height="450" rx="82" fill="#f5e5ad" stroke="#fff" stroke-width="12"/><rect x="500" y="105" width="240" height="450" rx="82" fill="#f5e5ad" stroke="#fff" stroke-width="12"/><g fill="#ead076"><ellipse cx="255" cy="180" rx="45" ry="31"/><ellipse cx="318" cy="238" rx="52" ry="37"/><ellipse cx="238" cy="307" rx="56" ry="43"/><ellipse cx="325" cy="386" rx="55" ry="41"/><ellipse cx="270" cy="474" rx="68" ry="53"/><ellipse cx="585" cy="185" rx="45" ry="32"/><ellipse cx="657" cy="248" rx="55" ry="40"/><ellipse cx="576" cy="319" rx="57" ry="44"/><ellipse cx="676" cy="398" rx="57" ry="43"/><ellipse cx="610" cy="488" rx="69" ry="55"/></g><rect x="192" y="258" width="180" height="148" rx="24" fill="#c82127"/><rect x="530" y="258" width="180" height="148" rx="24" fill="#c82127"/><text x="282" y="334" text-anchor="middle" font-family="Arial Black,Arial" font-size="42" fill="#fff">200g</text><text x="620" y="334" text-anchor="middle" font-family="Arial Black,Arial" font-size="42" fill="#fff">250g</text></svg>
