<svg xmlns="http://www.w3.org/2000/svg" viewBox="0 0 900 650"><rect width="900" height="650" fill="#fff3dc"/><circle cx="735" cy="115" r="140" fill="#d9a441" opacity=".18"/><path d="M330 75c88-22 170-22 240 0l38 500c-104 44-210 44-316 0z" fill="#fff7d6" stroke="#fff" stroke-width="12"/><g fill="#edd37e"><circle cx="370" cy="160" r="30"/><circle cx="435" cy="145" r="34"/><circle cx="505" cy="160" r="33"/><circle cx="380" cy="240" r="39"/><circle cx="460" cy="242" r="43"/><circle cx="535" cy="245" r="36"/><circle cx="390" cy="340" r="42"/><circle cx="480" cy="345" r="48"/><circle cx="540" cy="410" r="42"/><circle cx="425" cy="470" r="52"/></g><rect x="310" y="230" width="280" height="200" rx="28" fill="#c82127"/><text x="450" y="292" text-anchor="middle" font-family="Arial" font-size="28" font-weight="700" fill="#fff">RAMBAK KULIT ASLI</text><text x="450" y="355" text-anchor="middle" font-family="Arial" font-size="58" font-weight="900" fill="#fff">SISWANTO</text><text x="450" y="402" text-anchor="middle" font-family="Arial" font-size="26" fill="#fff">500g</text></svg>
