<svg xmlns="http://www.w3.org/2000/svg" viewBox="0 0 900 650"><defs><linearGradient id="bg" x1="0" x2="1" y1="0" y2="1"><stop stop-color="#fff8ea"/><stop offset="1" stop-color="#ead3b4"/></linearGradient><linearGradient id="bag" x1="0" x2="1"><stop stop-color="#fff" stop-opacity=".38"/><stop offset=".5" stop-color="#fff" stop-opacity=".12"/><stop offset="1" stop-color="#f7f7f7" stop-opacity=".45"/></linearGradient><filter id="s"><feDropShadow dx="0" dy="28" stdDeviation="28" flood-color="#40140f" flood-opacity=".25"/></filter></defs><rect width="900" height="650" fill="url(#bg)"/><circle cx="735" cy="115" r="140" fill="#d9a441" opacity=".18"/><g filter="url(#s)"><path d="M322 70c96-24 175-24 256 0l40 500c-98 45-224 45-336 0z" fill="#f6e8bb"/><g fill="#ead17a"><ellipse cx="372" cy="160" rx="42" ry="30"/><ellipse cx="455" cy="145" rx="48" ry="34"/><ellipse cx="535" cy="172" rx="44" ry="31"/><ellipse cx="382" cy="245" rx="52" ry="38"/><ellipse cx="468" cy="242" rx="58" ry="42"/><ellipse cx="548" cy="258" rx="48" ry="35"/><ellipse cx="392" cy="354" rx="57" ry="42"/><ellipse cx="486" cy="352" rx="64" ry="48"/><ellipse cx="545" cy="435" rx="54" ry="39"/><ellipse cx="430" cy="486" rx="68" ry="48"/></g><path d="M322 70c96-24 175-24 256 0l40 500c-98 45-224 45-336 0z" fill="url(#bag)" stroke="#fff" stroke-width="11"/><path d="M350 92c35 36 48 420 36 450" stroke="#fff" stroke-opacity=".38" stroke-width="16" fill="none"/><rect x="306" y="225" width="288" height="205" rx="30" fill="#c82127"/><text x="450" y="285" text-anchor="middle" font-family="Arial" font-size="27" font-weight="700" fill="#fff">RAMBAK KULIT ASLI</text><text x="450" y="350" text-anchor="middle" font-family="Arial Black,Arial" font-size="57" fill="#fff">SISWANTO</text><text x="450" y="398" text-anchor="middle" font-family="Arial" font-size="26" fill="#fff">500g</text></g></svg>
