<svg xmlns="http://www.w3.org/2000/svg" viewBox="0 0 900 650"><rect width="900" height="650" fill="#f6efe3"/><rect x="92" y="398" width="716" height="76" rx="30" fill="#8a5a31" opacity=".22"/><rect x="120" y="150" width="238" height="380" rx="58" fill="#efe1cb" stroke="#fff" stroke-width="12"/><rect x="331" y="115" width="238" height="415" rx="60" fill="#efe1cb" stroke="#fff" stroke-width="12"/><rect x="542" y="150" width="238" height="380" rx="58" fill="#efe1cb" stroke="#fff" stroke-width="12"/><g fill="#ddc8a5"><rect x="152" y="205" width="174" height="27" rx="14"/><rect x="152" y="255" width="174" height="27" rx="14"/><rect x="363" y="205" width="174" height="27" rx="14"/><rect x="363" y="255" width="174" height="27" rx="14"/><rect x="574" y="205" width="174" height="27" rx="14"/><rect x="574" y="255" width="174" height="27" rx="14"/></g><rect x="146" y="330" width="188" height="124" rx="23" fill="#d24125"/><rect x="356" y="330" width="188" height="124" rx="23" fill="#d24125"/><rect x="566" y="330" width="188" height="124" rx="23" fill="#d24125"/><text x="450" y="405" text-anchor="middle" font-family="Arial Black,Arial" font-size="38" fill="#fff">KERUPUK IKAN</text></svg>
