<svg xmlns="http://www.w3.org/2000/svg" viewBox="0 0 900 650"><rect width="900" height="650" fill="#f6efe3"/><rect x="95" y="385" width="710" height="74" rx="28" fill="#8a5a31" opacity=".25"/><rect x="135" y="145" width="230" height="380" rx="58" fill="#efe1cb" stroke="#fff" stroke-width="10"/><rect x="335" y="115" width="230" height="410" rx="58" fill="#efe1cb" stroke="#fff" stroke-width="10"/><rect x="535" y="145" width="230" height="380" rx="58" fill="#efe1cb" stroke="#fff" stroke-width="10"/><g fill="#ddc8a5"><rect x="165" y="205" width="168" height="25" rx="13"/><rect x="165" y="255" width="168" height="25" rx="13"/><rect x="365" y="205" width="168" height="25" rx="13"/><rect x="365" y="255" width="168" height="25" rx="13"/><rect x="565" y="205" width="168" height="25" rx="13"/><rect x="565" y="255" width="168" height="25" rx="13"/></g><rect x="155" y="330" width="190" height="120" rx="22" fill="#d24125"/><rect x="355" y="330" width="190" height="120" rx="22" fill="#d24125"/><rect x="555" y="330" width="190" height="120" rx="22" fill="#d24125"/><text x="450" y="405" text-anchor="middle" font-family="Arial" font-size="40" font-weight="900" fill="#fff">KERUPUK IKAN</text></svg>
