<svg xmlns="http://www.w3.org/2000/svg" viewBox="0 0 900 650"><rect width="900" height="650" fill="#efe8db"/><rect x="60" y="70" width="780" height="470" rx="30" fill="#d9d0c2"/><rect x="110" y="110" width="680" height="120" fill="#b7b0a6"/><rect x="100" y="250" width="180" height="250" fill="#f3d98b"/><rect x="620" y="250" width="180" height="250" fill="#f3d98b"/><g fill="#d2232a"><rect x="130" y="280" width="80" height="60" rx="10"/><rect x="650" y="280" width="80" height="60" rx="10"/><rect x="175" y="365" width="80" height="60" rx="10"/><rect x="690" y="365" width="80" height="60" rx="10"/></g><circle cx="360" cy="440" r="58" fill="#262626"/><circle cx="500" cy="440" r="58" fill="#262626"/><rect x="320" y="320" width="90" height="130" rx="28" fill="#caa36b"/><rect x="455" y="320" width="90" height="130" rx="28" fill="#b48a5a"/><rect x="315" y="280" width="100" height="50" rx="20" fill="#7a3f2b"/><rect x="450" y="280" width="100" height="50" rx="20" fill="#7a3f2b"/><text x="450" y="590" text-anchor="middle" font-family="Arial" font-size="34" font-weight="900" fill="#8e1717">PRODUKSI & PENGEMASAN</text></svg>
