<svg xmlns="http://www.w3.org/2000/svg" viewBox="0 0 900 650"><rect width="900" height="650" fill="#fff4df"/><path d="M330 80c90-25 150-18 226 0l40 490c-92 42-190 42-306 0z" fill="#fff7d6" stroke="#fff" stroke-width="10"/><g fill="#edd27e"><circle cx="360" cy="160" r="28"/><circle cx="418" cy="138" r="31"/><circle cx="482" cy="154" r="30"/><circle cx="540" cy="140" r="29"/><circle cx="385" cy="225" r="34"/><circle cx="455" cy="218" r="38"/><circle cx="525" cy="226" r="34"/><circle cx="375" cy="315" r="39"/><circle cx="455" cy="310" r="42"/><circle cx="536" cy="318" r="39"/><circle cx="397" cy="410" r="43"/><circle cx="492" cy="420" r="45"/><circle cx="442" cy="505" r="50"/></g><rect x="310" y="210" width="280" height="210" rx="26" fill="#c81f26"/><text x="450" y="330" text-anchor="middle" font-family="Arial" font-size="58" font-weight="900" fill="#fff">SISWANTO</text></svg>
