<svg xmlns="http://www.w3.org/2000/svg" viewBox="0 0 900 650"><rect width="900" height="650" fill="#f4efe4"/><rect x="80" y="330" width="740" height="90" rx="24" fill="#8a5a31" opacity=".28"/><rect x="120" y="160" width="250" height="360" rx="54" fill="#efe0cb" stroke="#fff" stroke-width="8"/><rect x="325" y="120" width="250" height="400" rx="54" fill="#efe0cb" stroke="#fff" stroke-width="8"/><rect x="530" y="160" width="250" height="360" rx="54" fill="#efe0cb" stroke="#fff" stroke-width="8"/><g fill="#e7d5b4"><rect x="150" y="205" width="190" height="24" rx="12"/><rect x="150" y="248" width="190" height="24" rx="12"/><rect x="150" y="291" width="190" height="24" rx="12"/><rect x="350" y="205" width="190" height="24" rx="12"/><rect x="350" y="248" width="190" height="24" rx="12"/><rect x="350" y="291" width="190" height="24" rx="12"/><rect x="560" y="205" width="190" height="24" rx="12"/><rect x="560" y="248" width="190" height="24" rx="12"/><rect x="560" y="291" width="190" height="24" rx="12"/></g><rect x="150" y="340" width="190" height="120" rx="20" fill="#d14126"/><rect x="355" y="340" width="190" height="120" rx="20" fill="#d14126"/><rect x="560" y="340" width="190" height="120" rx="20" fill="#d14126"/><text x="450" y="405" text-anchor="middle" font-family="Arial" font-size="38" font-weight="900" fill="#fff">KERUPUK IKAN</text></svg>
